<svg height="24" viewBox="0 0 24 24" width="24" xmlns="http://www.w3.org/2000/svg"><path d="m16.2142735.59225911v3.85966608l-2.7453237 1.15547998.0592865.05021195c1.7205157 1.50514879 2.7066059 3.67999198 2.7066059 5.96070378 0 4.3575509-3.5462951 7.903846-7.90324101 7.903846-4.35634099 0-7.90021621-3.5462951-7.90021621-7.903846 0-2.28313165.98730016-4.45615996 2.70842085-5.96070378l.05868145-.05021195-2.7441137-1.15547998v-3.85966608l4.7671111 2.03267681s.0094772.01798113.02729605.05178864l.07734595.14674693c.48381567.9179301 2.48271286 4.71032026 2.53481303 4.808141-2.02420732.24319526-3.5426653 1.94253728-3.5426653 3.98670841 0 2.2123509 1.79976593 4.0169565 4.01332678 4.0169565 2.21295591 0 4.01332681-1.8046056 4.01332681-4.0169565 0-2.04417113-1.5196679-3.74351315-3.54387526-3.98670841.05103691-.09782074 2.05307556-3.8902109 2.53766846-4.808141l.0774708-.14674693c.0178478-.03380751.0273406-.05178864.0273406-.05178864zm-4.0318992-.5925011-3.85059162 7.31884645-3.84696186-7.31884645 3.84696186 1.93467276z" fill="#fdb813" fill-rule="evenodd" transform="translate(4 2)"/></svg>