<svg viewBox="0 0 40 40" xmlns="http://www.w3.org/2000/svg" class=" "><defs><radialGradient cx="50%" cy="91.991%" fx="50%" fy="91.991%" r="76.29%" gradientTransform="matrix(-1 0 0 -1.05368 1 1.89)" id="icn-bank-fill-woori-a"><stop stop-color="#FFF" offset="0%"/><stop stop-color="#FEFEFE" offset="45.88%"/><stop stop-color="#FEFEFE" offset="61.392%"/><stop stop-color="#5CCBF4" offset="72.585%"/><stop stop-color="#00AFE6" offset="78.648%"/><stop stop-color="#0084CB" offset="90.124%"/><stop stop-color="#0083C9" offset="100%"/></radialGradient><radialGradient cx="50%" cy="71.272%" fx="50%" fy="71.272%" r="151.993%" gradientTransform="matrix(-.47025 0 0 -.61655 .735 1.152)" id="icn-bank-fill-woori-b"><stop stop-color="#FEFEFE" offset="0%"/><stop stop-color="#FEFEFE" stop-opacity=".9" offset="67.332%"/><stop stop-color="#FEFEFE" offset="68.553%"/><stop stop-color="#FEFEFE" offset="68.772%"/><stop stop-color="#FFF" stop-opacity="0" offset="72.448%"/><stop stop-color="#FFF" offset="87.23%"/><stop stop-color="#0083C9" offset="100%"/></radialGradient></defs><g fill="none" fill-rule="evenodd"><path fill="#CCE5F3" d="M0 0h40v40H0z"/><g transform="translate(8.347 8.347)"><circle fill="url(#icn-bank-fill-woori-a)" cx="11.524" cy="11.524" r="11.524"/><path d="M11.526 9.9c5.154 0 9.469 2.884 10.553 6.328a11.556 11.556 0 01-2.538 3.598c-1.977-.707-4.836-1.15-8.015-1.15-3.178 0-6.038.443-8.018 1.149A11.532 11.532 0 01.97 16.226C2.055 12.784 6.368 9.9 11.526 9.9z" fill="url(#icn-bank-fill-woori-b)"/><path d="M11.522 14.378c-3.917 0-7.552.666-10.552 1.794 1.799 4.054 5.846 6.877 10.554 6.877 4.705 0 8.752-2.824 10.555-6.877-3-1.128-6.64-1.794-10.557-1.794" fill="#0083C9"/></g></g></svg>