<svg xmlns="http://www.w3.org/2000/svg" viewBox="0 0 24 24" class=" "><g fill="none" fill-rule="evenodd"><path fill="#E4E7EA" d="M23 12c0 6.075-4.925 11-11 11S1 18.075 1 12 5.925 1 12 1s11 4.925 11 11"/><path fill="#333D4B" d="M12.053 14.376a.75.75 0 01-.75-.75c0-1.522.946-2.127 1.637-2.57.589-.376.927-.616 1.056-1.18.113-.489.023-.921-.267-1.285-.37-.465-1.028-.764-1.676-.764a1.926 1.926 0 00-1.925 1.923.75.75 0 11-1.5 0 3.428 3.428 0 013.425-3.424c1.104 0 2.196.51 2.849 1.33.573.72.77 1.626.556 2.555-.272 1.19-1.103 1.72-1.71 2.108-.655.42-.945.633-.945 1.306a.75.75 0 01-.75.75m.015 1.208a1.2 1.2 0 100 2.4 1.2 1.2 0 000-2.4"/></g></svg>