<svg fill="none" height="24" viewBox="0 0 24 24" width="24" xmlns="http://www.w3.org/2000/svg"><path d="m22.5 12c0 5.7989-4.7011 10.5-10.5 10.5-5.79886 0-10.5-4.7011-10.5-10.5 0-5.79886 4.70114-10.5 10.5-10.5 5.7989 0 10.5 4.70114 10.5 10.5z" fill="#ffcf58"/><path d="m12 15.1414c-.4092 0-.7874.2183-.992.5727s-.2046.7911 0 1.1455.5828.5727.992.5727c.6326 0 1.1454-.5128 1.1454-1.1454s-.5128-1.1455-1.1454-1.1455zm0-1.6065c-.4745 0-.8591-.3846-.8591-.8591v-4.7727c0-.47447.3846-.85909.8591-.85909s.8591.38462.8591.85909v4.7727c0 .4745-.3846.8591-.8591.8591z" fill="#333d4b"/></svg>