<svg enable-background="new 0 0 24 24" viewBox="0 0 24 24" xmlns="http://www.w3.org/2000/svg"><g fill="#a5afb9"><path d="m14.779 4.672c-.908-.218-1.836-.348-2.779-.348-4.212 0-8.195 2.261-10.818 6.028-.684.982-.684 2.315 0 3.297.64.919 1.363 1.744 2.148 2.473z"/><path d="m22.819 10.352c-1.05-1.508-2.325-2.761-3.74-3.733l2.569-2.569c.469-.469.469-1.229 0-1.697s-1.229-.469-1.697 0l-17.599 17.597c-.469.469-.469 1.229 0 1.697.234.234.542.352.849.352s.614-.117.849-.352l3.044-3.044c1.549.691 3.206 1.073 4.906 1.073 4.213 0 8.196-2.261 10.819-6.028.683-.981.683-2.314 0-3.296zm-10.82 5.622c-.659 0-1.274-.171-1.819-.458l5.335-5.335c.287.545.458 1.159.458 1.818 0 2.193-1.783 3.975-3.974 3.975z"/></g></svg>